<svg xmlns="http://www.w3.org/2000/svg" height="24px"  viewBox="0 -960 4800 960" width="120px" fill="#61bfc1">
  <path transform="translate(0, 0)" d="m233-120 93-304L80-600h304l96-320 96 320h304L634-424l93 304-247-188-247 188Z"/>
  <path transform="translate(960, 0)" d="m233-120 93-304L80-600h304l96-320 96 320h304L634-424l93 304-247-188-247 188Z"/>
  <path transform="translate(1920, 0)" d="m233-120 93-304L80-600h304l96-320 96 320h304L634-424l93 304-247-188-247 188Z"/>
  <path transform="translate(2880, 0)" d="m233-120 93-304L80-600h304l96-320 96 320h304L634-424l93 304-247-188-247 188Z"/>
  <path transform="translate(3840, 0)" d="m233-120 93-304L80-600h304l96-320 96 320h304L634-424l93 304-247-188-247 188Z"/>
</svg>