<svg width="0" height="0" class="hidden">

<!-- ICONOS PARA NUESTROS SERVICIOS -->

  <symbol xmlns="http://www.w3.org/2000/svg" viewBox="0 -960 960 960" id="icon-5">
    <path d="M80-120v-80h800v80H80Zm40-120v-280h120v280H120Zm200 0v-480h120v480H320Zm200 0v-360h120v360H520Zm200 0v-600h120v600H720Z"></path>
  </symbol>
  <symbol xmlns="http://www.w3.org/2000/svg" viewBox="0 -960 960 960" id="icon-1">
    <path d="M38-428q-18-36-28-73T0-576q0-112 76-188t188-76q63 0 120 26.5t96 73.5q39-47 96-73.5T696-840q112 0 188 76t76 188q0 38-10 75t-28 73q-11-19-26-34t-35-24q9-23 14-45t5-45q0-78-53-131t-131-53q-81 0-124.5 44.5T480-616q-48-56-91.5-100T264-760q-78 0-131 53T80-576q0 23 5 45t14 45q-20 9-35 24t-26 34ZM0-80v-63q0-44 44.5-70.5T160-240q13 0 25 .5t23 2.5q-14 20-21 43t-7 49v65H0Zm240 0v-65q0-65 66.5-105T480-290q108 0 174 40t66 105v65H240Zm540 0v-65q0-26-6.5-49T754-237q11-2 22.5-2.5t23.5-.5q72 0 116 26.5t44 70.5v63H780ZM480-210q-57 0-102 15t-53 35h311q-9-20-53.5-35T480-210Zm-320-70q-33 0-56.5-23.5T80-360q0-34 23.5-57t56.5-23q34 0 57 23t23 57q0 33-23 56.5T160-280Zm640 0q-33 0-56.5-23.5T720-360q0-34 23.5-57t56.5-23q34 0 57 23t23 57q0 33-23 56.5T800-280Zm-320-40q-50 0-85-35t-35-85q0-51 35-85.5t85-34.5q51 0 85.5 34.5T600-440q0 50-34.5 85T480-320Zm0-160q-17 0-28.5 11.5T440-440q0 17 11.5 28.5T480-400q17 0 28.5-11.5T520-440q0-17-11.5-28.5T480-480Zm0 40Zm1 280Z"></path>
  </symbol>
  <symbol xmlns="http://www.w3.org/2000/svg" viewBox="0 -960 960 960" id="icon-2">
    <path d="M456-600h320q-27-69-82.5-118.5T566-788L456-600Zm-92 80 160-276q-11-2-22-3t-22-1q-66 0-123 25t-101 67l108 188ZM170-400h218L228-676q-32 41-50 90.5T160-480q0 21 2.5 40.5T170-400Zm224 228 108-188H184q27 69 82.5 118.5T394-172Zm86 12q66 0 123-25t101-67L596-440 436-164q11 2 21.5 3t22.5 1Zm252-124q32-41 50-90.5T800-480q0-21-2.5-40.5T790-560H572l160 276ZM480-480Zm0 400q-82 0-155-31.5t-127.5-86Q143-252 111.5-325T80-480q0-83 31.5-155.5t86-127Q252-817 325-848.5T480-880q83 0 155.5 31.5t127 86q54.5 54.5 86 127T880-480q0 82-31.5 155t-86 127.5q-54.5 54.5-127 86T480-80Z"></path>
  </symbol>
  <symbol xmlns="http://www.w3.org/2000/svg" viewBox="0 -960 960 960" id="icon-3">
    <path d="M640-40q-17 0-28.5-11.5T600-80q0-17 11.5-28.5T640-120h120v-40H640q-17 0-28.5-11.5T600-200q0-17 11.5-28.5T640-240h120v-40H640q-17 0-28.5-11.5T600-320q0-17 11.5-28.5T640-360h120v-40H640q-17 0-28.5-11.5T600-440q0-17 11.5-28.5T640-480h120v-40H640q-17 0-28.5-11.5T600-560q0-17 11.5-28.5T640-600h120v-40H640q-17 0-28.5-11.5T600-680q0-17 11.5-28.5T640-720h160q33 0 56.5 23.5T880-640v520q0 33-23.5 56.5T800-40H640ZM320-360q66 0 113-65t47-155q0-90-47-155t-113-65q-66 0-113 65t-47 155q0 90 47 155t113 65Zm0 320q-48 0-79-35.5T217-159l16-141q-68-33-110.5-108.5T80-580q0-125 70-212.5T320-880q100 0 170 87.5T560-580q0 96-42.5 171.5T407-300l16 141q7 48-24 83.5T320-40Z"></path>
  </symbol>
  <symbol xmlns="http://www.w3.org/2000/svg" viewBox="0 -960 960 960" id="icon-4">
    <path d="M480-320q75 0 127.5-52.5T660-500q0-75-52.5-127.5T480-680v60q50 0 85 35t35 85q0 50-35 85t-85 35q-33 0-61.5-17T374-443l-52 29q24 44 66 69t92 25ZM330-466q13 0 21.5-8.5T360-496q0-13-8.5-21.5T330-526q-13 0-21.5 8.5T300-496q0 13 8.5 21.5T330-466Zm22-84q13 0 21.5-8.5T382-580q0-13-8.5-21.5T352-610q-13 0-21.5 8.5T322-580q0 13 8.5 21.5T352-550Zm58-55q13 0 21.5-8.5T440-635q0-13-8.5-21.5T410-665q-13 0-21.5 8.5T380-635q0 13 8.5 21.5T410-605Zm70 525q-139-35-229.5-159.5T160-516v-244l320-120 320 120v244q0 152-90.5 276.5T480-80Zm0-84q104-33 172-132t68-220v-189l-240-90-240 90v189q0 121 68 220t172 132Zm0-316Z"></path>
  </symbol>

  
<!-- ICONOS PARA VALORES -->

  <symbol xmlns="http://www.w3.org/2000/svg"  viewBox="0 -960 960 960" id="icon-valor-1">
    <path d="M176-147.69 147.69-176l144-144H160v-40h200v200h-40v-131.69l-144 144Zm608 0-144-144V-160h-40v-200h200v40H668.31l144 144L784-147.69ZM160-600v-40h131.69l-144-144L176-812.31l144 144V-800h40v200H160Zm440 0v-200h40v131.69l144-144L812.31-784l-144 144H800v40H600ZM480-426.92q-21.89 0-37.49-15.59-15.59-15.6-15.59-37.49t15.59-37.49q15.6-15.59 37.49-15.59t37.49 15.59q15.59 15.6 15.59 37.49t-15.59 37.49q-15.6 15.59-37.49 15.59Z"></path>
  </symbol>
   <symbol xmlns="http://www.w3.org/2000/svg"  viewBox="0 -960 960 960" id="icon-valor-2">
    <path d="M480-80q-169.85 0-284.92-60.81Q80-201.62 80-290q0-59.77 56.31-107.65 56.31-47.89 160.61-75.58V-432q-81.46 23-129.19 60.92Q120-333.15 120-290q0 68.62 107.23 119.31T480-120q145.54 0 252.77-50.69Q840-221.38 840-290q0-43.15-47.73-81.08Q744.54-409 663.08-432v-41.23q103.54 26.92 160.23 75.19Q880-349.77 880-290q0 88.38-115.08 149.19Q649.85-80 480-80Zm-87.69-163.08v-433.07H200v-40h560v40H567.69v433.07h-40v-197.69h-95.38v197.69h-40Zm87.71-520.77q-23.79 0-40.75-16.94-16.96-16.95-16.96-40.75 0-24.43 16.94-41.83t40.73-17.4q23.79 0 40.75 17.4t16.96 41.83q0 23.8-16.94 40.75-16.94 16.94-40.73 16.94Z"></path>
  </symbol>
  <symbol xmlns="http://www.w3.org/2000/svg"  viewBox="0 -960 960 960" id="icon-valor-3">
    <path d="M480-164.61q-22.15 0-38.15-12.89-16-12.88-18.77-33.11H400q-16.08 0-28.04-11.97Q360-234.54 360-250.62v-120.46q-62.08-34.38-96.04-93.77Q230-524.23 230-590q0-104.85 72.58-177.42Q375.15-840 480-840t177.42 72.58Q730-694.85 730-590q0 66.23-33.96 125.38-33.96 59.16-96.04 93.54v120.46q0 16.08-11.96 28.04-11.96 11.97-28.04 11.97h-23.08q-2.77 20.23-18.77 33.11-16 12.89-38.15 12.89Zm-80-86.01h160v-39.07H400v39.07Zm0-69.84h160V-360H400v39.54ZM392-400h70.31v-124.92l-83.39-83.39L404-633.38l76 76 76-76 25.08 25.07-83.39 83.39V-400H568q54-26 88-76.5T690-590q0-88-61-149t-149-61q-88 0-149 61t-61 149q0 63 34 113.5t88 76.5Zm88-157.38Zm0-42.62Z"></path>
  </symbol>
    <symbol xmlns="http://www.w3.org/2000/svg"  viewBox="0 -960 960 960" id="icon-valor-4">
    <path d="M586.85-120q-20.16 0-37.93-7.46t-32.46-22.16l-174-173.46 23-24q9.39-9.38 21.69-11.69 12.31-2.31 25.39 1.15l81.31 18.47v-280.08q0-8.54 5.73-14.27t14.27-5.73q8.53 0 14.27 5.73 5.73 5.73 5.73 14.27v333l-129.54-32.62 139.92 141.47q9.08 9.07 19.54 13.23 10.46 4.15 23.08 4.15h139.3q41.47 0 70.73-29.27 29.27-29.27 29.27-70.73v-126.92q0-8.54 5.73-14.27 5.74-5.73 14.27-5.73 8.54 0 14.27 5.73t5.73 14.27V-260q0 58.31-40.84 99.15Q784.46-120 726.15-120h-139.3Zm17.77-256.92v-160.77q0-8.54 5.73-14.27t14.27-5.73q8.53 0 14.26 5.73 5.74 5.73 5.74 14.27v160.77h-40Zm110.76 0v-105.39q0-8.54 5.74-14.27 5.73-5.73 14.26-5.73 8.54 0 14.27 5.73t5.73 14.27v105.39h-40ZM726.15-160H544.23 726.15Zm-541.53-80q-27.62 0-46.12-18.5Q120-277 120-304.62v-430.76q0-27.62 18.5-46.12Q157-800 184.62-800h550.76q27.62 0 46.12 18.5Q800-763 800-735.38v137.69h-40v-137.69q0-9.24-7.69-16.93-7.69-7.69-16.93-7.69H184.62q-9.24 0-16.93 7.69-7.69 7.69-7.69 16.93v430.76q0 9.24 7.69 16.93 7.69 7.69 16.93 7.69h72l39.76 40H184.62Z"></path>
  </symbol>

<!-- ICONO CLIENTES -->

  <symbol xmlns="http://www.w3.org/2000/svg"  viewBox="0 -960 960 960" id="icon-rate">
     <path transform="translate(0, 0)"
					d="m233-120 93-304L80-600h304l96-320 96 320h304L634-424l93 304-247-188-247 188Z" />
				<path transform="translate(960, 0)"
					d="m233-120 93-304L80-600h304l96-320 96 320h304L634-424l93 304-247-188-247 188Z" />
				<path transform="translate(1920, 0)"
					d="m233-120 93-304L80-600h304l96-320 96 320h304L634-424l93 304-247-188-247 188Z" />
				<path transform="translate(2880, 0)"
					d="m233-120 93-304L80-600h304l96-320 96 320h304L634-424l93 304-247-188-247 188Z" />
				<path transform="translate(3840, 0)"
					d="m233-120 93-304L80-600h304l96-320 96 320h304L634-424l93 304-247-188-247 188Z" />
  </symbol>

</svg>